<?xml version="1.0" standalone="no"?><!DOCTYPE svg PUBLIC "-//W3C//DTD SVG 1.1//EN" "http://www.w3.org/Graphics/SVG/1.1/DTD/svg11.dtd"><svg t="1592564559957" class="icon" viewBox="0 0 1024 1024" version="1.1" xmlns="http://www.w3.org/2000/svg" p-id="4567" xmlns:xlink="http://www.w3.org/1999/xlink" width="200" height="200"><defs><style type="text/css"></style></defs><path d="M768 853.333333c-69.393067 53.486933-149.333333 81.92-239.786667 85.333334H496.64c-90.453333-2.850133-170.376533-30.72-239.786667-83.626667v-88.746667C330.24 710.5536 415.2832 682.666667 512 682.666667c97.28 0 182.613333 28.450133 256 85.333333v85.333333z m-86.186667-426.666666c0 47.223467-16.776533 87.313067-50.346666 120.32-33.006933 33.5872-73.096533 50.346667-120.32 50.346666-47.223467 0-87.620267-16.759467-121.173334-50.346666-32.989867-33.006933-49.493333-73.096533-49.493333-120.32s16.503467-87.6032 49.493333-121.173334c33.553067-32.989867 73.949867-49.493333 121.173334-49.493333 47.223467 0 87.313067 16.503467 120.32 49.493333 33.570133 33.570133 50.346667 73.949867 50.346666 121.173334z" p-id="4568"></path><path d="M496.64 955.733333c-94.208-2.9696-178.176-32.273067-250.146133-87.125333l-0.238934-0.187733a547.4304 547.4304 0 0 1-48.401066-43.1104C111.872 739.2768 68.266667 633.890133 68.266667 512c0-121.856 43.588267-227.549867 129.536-314.112C284.450133 111.854933 390.126933 68.266667 512 68.266667c121.9072 0 227.293867 43.605333 313.2928 129.5872C911.854933 284.416 955.733333 390.109867 955.733333 512c0 121.924267-43.895467 227.328-130.474666 313.326933a509.7472 509.7472 0 0 1-47.0016 41.642667c-71.953067 55.364267-155.835733 85.213867-249.3952 88.746667L496.64 955.733333z m-222.72-109.2608c64.699733 47.2576 139.758933 72.516267 223.266133 75.144534L528.213333 921.6c82.926933-3.157333 158.020267-28.962133 222.72-76.765867v-68.369066C682.376533 725.5552 602.026667 699.733333 512 699.733333c-89.480533 0-169.540267 25.258667-238.08 75.144534v71.594666zM512 102.4c-112.5376 0-210.1248 40.2432-290.065067 119.620267C142.6432 301.8752 102.4 399.479467 102.4 512c0 112.503467 40.226133 209.783467 119.586133 289.160533 5.888 5.870933 11.810133 11.554133 17.800534 16.9984V766.293333a17.066667 17.066667 0 0 1 6.741333-13.585066C322.6112 694.903467 411.938133 665.6 512 665.6c100.693333 0 190.344533 29.917867 266.4448 88.917333 4.181333 3.2256 6.621867 8.192 6.621867 13.482667v48.571733c5.410133-4.949333 10.8032-10.103467 16.093866-15.394133C881.1008 721.7664 921.6 624.4864 921.6 512c0-112.503467-40.516267-210.090667-120.439467-290.013867C721.800533 142.626133 624.520533 102.4 512 102.4z m-0.853333 512c-51.729067 0-96.5632-18.619733-133.256534-55.3472-36.1472-36.164267-54.4768-80.708267-54.4768-132.386133 0-51.6096 18.295467-96.4096 54.391467-133.137067C414.702933 257.2288 459.502933 238.933333 511.146667 238.933333c51.677867 0 96.221867 18.3296 132.386133 54.493867 36.727467 36.727467 55.3472 81.5616 55.3472 133.239467 0 51.746133-18.653867 96.324267-55.4496 132.488533C607.488 595.746133 562.8928 614.4 511.146667 614.4z m0-341.333333c-42.973867 0-78.6944 14.574933-109.2096 44.5952-29.7984 30.327467-44.3904 66.048-44.3904 109.0048 0 42.888533 14.557867 78.301867 44.4928 108.253866C432.5376 565.435733 468.224 580.266667 511.146667 580.266667c42.8544 0 78.2336-14.7968 108.151466-45.243734C649.949867 504.8832 664.746667 469.504 664.746667 426.666667c0-42.888533-14.830933-78.574933-45.346134-109.1072C589.448533 287.624533 554.052267 273.066667 511.146667 273.066667z" p-id="4569"></path></svg>