<?xml version="1.0" standalone="no"?><!DOCTYPE svg PUBLIC "-//W3C//DTD SVG 1.1//EN" "http://www.w3.org/Graphics/SVG/1.1/DTD/svg11.dtd"><svg t="1558412751286" class="icon" style="" viewBox="0 0 1024 1024" version="1.1" xmlns="http://www.w3.org/2000/svg" p-id="11191" xmlns:xlink="http://www.w3.org/1999/xlink" width="300" height="300"><defs><style type="text/css"></style></defs><path d="M851.771262 290.186146c4.084821-8.887763 3.682073-19.652742-2.035584-28.444937-25.599761-39.242682-103.017502-98.542219-161.351809-98.542219L334.534854 163.198989c-58.240105 0-135.676959 59.299537-161.351809 98.49034-5.742232 8.796291-6.155902 19.591306-2.061524 28.495452-52.07055 23.58329-88.498091 76.903042-88.498091 138.773341l0 353.558217c0 83.635079 66.596787 151.68995 148.428373 151.68995l560.786447 0c81.835682 0 148.431104-68.056236 148.431104-151.68995l0-353.558217C940.269354 367.090553 903.843178 313.770801 851.771262 290.186146zM334.534854 221.376292l353.849015 0c27.183449 0 73.480366 28.773962 99.947059 55.878226l-553.730846 0C261.114559 250.146159 307.396459 221.376292 334.534854 221.376292zM854.516776 764.417249c0 46.31057-37.791424 83.962738-84.245345 83.962738L252.622718 848.379987c-46.453921 0-84.245345-37.652168-84.245345-83.962738L168.377374 447.044924c0-46.296917 37.791424-83.949086 84.245345-83.949086l517.648713 0c46.453921 0 84.245345 37.652168 84.245345 83.949086L854.516776 764.417249zM588.588352 593.160567l-141.780982-84.44194c-11.65512-6.942285-21.105365-0.782287-21.105365 12.583489L425.702005 690.146404c0 13.899588 9.895316 19.262281 21.105365 12.597141l141.779616-84.454228C600.243473 611.362051 599.802498 599.837994 588.588352 593.160567z" p-id="11192"></path></svg>