<?xml version="1.0" standalone="no"?><!DOCTYPE svg PUBLIC "-//W3C//DTD SVG 1.1//EN" "http://www.w3.org/Graphics/SVG/1.1/DTD/svg11.dtd"><svg t="1592401668765" class="icon" viewBox="0 0 1074 1024" version="1.1" xmlns="http://www.w3.org/2000/svg" p-id="1487" xmlns:xlink="http://www.w3.org/1999/xlink" width="209.765625" height="200"><defs><style type="text/css"></style></defs><path d="M133.65718 0h807.046295A133.673967 133.673967 0 0 1 1074.360656 133.673967v756.652066A133.673967 133.673967 0 0 1 940.703475 1024H133.65718A133.673967 133.673967 0 0 1 0 890.326033V133.673967A133.673967 133.673967 0 0 1 133.65718 0z m0 65.569574a68.087607 68.087607 0 0 0-68.087606 68.104393v756.652066a68.087607 68.087607 0 0 0 68.087606 68.104393h807.046295a68.087607 68.087607 0 0 0 68.087607-68.104393V133.673967a68.087607 68.087607 0 0 0-68.087607-68.104393H133.65718z m630.51541 489.304131a133.673967 133.673967 0 0 1 133.65718 133.673967v50.44459a83.229377 83.229377 0 0 1-83.229377 83.229377H259.760262a83.229377 83.229377 0 0 1-83.229377-83.229377v-50.44459a133.673967 133.673967 0 0 1 133.673967-133.673967h118.51541v-70.622426a183.950689 183.950689 0 0 1-75.641705-148.798951c0-101.694951 82.423607-184.118557 184.101771-184.118558s184.10177 82.423607 184.10177 184.118558c0 59.794885-28.772721 114.604066-75.658491 148.798951v70.622426h118.532196z m-184.118557 32.784787v-121.117377c0-11.717246 6.244721-22.528 16.367213-28.386623a118.532197 118.532197 0 1 0-118.481836 0c10.122492 5.858623 16.367213 16.669377 16.367213 28.369836v121.134164a32.784787 32.784787 0 0 1-32.784787 32.801574h-151.316984a68.087607 68.087607 0 0 0-68.087606 68.087606v50.44459c0 9.75318 7.889836 17.659803 17.643016 17.659804h554.840131c9.736393 0 17.643016-7.906623 17.643017-17.659804v-50.44459a68.087607 68.087607 0 0 0-68.087607-68.087606h-151.316983a32.784787 32.784787 0 0 1-32.784787-32.801574z" p-id="1488"></path></svg>