<?xml version="1.0" standalone="no"?><!DOCTYPE svg PUBLIC "-//W3C//DTD SVG 1.1//EN" "http://www.w3.org/Graphics/SVG/1.1/DTD/svg11.dtd"><svg t="1592401588769" class="icon" viewBox="0 0 1024 1024" version="1.1" xmlns="http://www.w3.org/2000/svg" p-id="955" xmlns:xlink="http://www.w3.org/1999/xlink" width="200" height="200"><defs><style type="text/css"></style></defs><path d="M265.142857 212.571429c-5.028571 0-9.142857 4.114286-9.142857 9.142857v54.857143c0 5.028571 4.114286 9.142857 9.142857 9.142857h438.857143c5.028571 0 9.142857-4.114286 9.142857-9.142857v-54.857143c0-5.028571-4.114286-9.142857-9.142857-9.142857H265.142857z m210.285714 164.571428H265.142857c-5.028571 0-9.142857 4.114286-9.142857 9.142857v54.857143c0 5.028571 4.114286 9.142857 9.142857 9.142857h210.285714c5.028571 0 9.142857-4.114286 9.142858-9.142857v-54.857143c0-5.028571-4.114286-9.142857-9.142858-9.142857z m-54.857142 523.428572H164.571429V96h640v365.714286c0 5.028571 4.114286 9.142857 9.142857 9.142857h64c5.028571 0 9.142857-4.114286 9.142857-9.142857V50.285714c0-20.228571-16.342857-36.571429-36.571429-36.571428H118.857143c-20.228571 0-36.571429 16.342857-36.571429 36.571428v896c0 20.228571 16.342857 36.571429 36.571429 36.571429h301.714286c5.028571 0 9.142857-4.114286 9.142857-9.142857v-64c0-5.028571-4.114286-9.142857-9.142857-9.142857z m502.857142-100.571429H758.857143v-41.828571c52.914286-15.771429 91.428571-64.685714 91.428571-122.742858 0-70.742857-57.257143-128-128-128s-128 57.257143-128 128c0 57.942857 38.514286 106.971429 91.428572 122.742858V800H521.142857c-10.057143 0-18.285714 8.228571-18.285714 18.285714v173.714286c0 10.057143 8.228571 18.285714 18.285714 18.285714h402.285714c10.057143 0 18.285714-8.228571 18.285715-18.285714V818.285714c0-10.057143-8.228571-18.285714-18.285715-18.285714zM665.142857 635.428571c0-31.542857 25.6-57.142857 57.142857-57.142857s57.142857 25.6 57.142857 57.142857-25.6 57.142857-57.142857 57.142858-57.142857-25.6-57.142857-57.142858z m205.714286 304H573.714286v-68.571428h297.142857v68.571428z" p-id="956"></path></svg>