<?xml version="1.0" standalone="no"?><!DOCTYPE svg PUBLIC "-//W3C//DTD SVG 1.1//EN" "http://www.w3.org/Graphics/SVG/1.1/DTD/svg11.dtd"><svg t="1558412573725" class="icon" style="" viewBox="0 0 1024 1024" version="1.1" xmlns="http://www.w3.org/2000/svg" p-id="7939" xmlns:xlink="http://www.w3.org/1999/xlink" width="300" height="300"><defs><style type="text/css"></style></defs><path d="M968.014407 816.160409l-147.388362-192.479935c52.283725-49.810079 85.065556-119.810133 85.065556-197.432388 0-150.698024-122.963258-273.313802-274.084451-273.313802-151.124634 0-274.089612 122.615777-274.089612 273.313802s122.963258 273.313802 274.089612 273.313802c48.681629 0 94.321946-12.849886 133.996613-35.126461l147.904421 193.168015c6.75006 8.810859 16.923317 13.460556 27.268593 13.460556 7.231716 0 14.559763-2.256901 20.728397-7.00637C976.613681 852.578739 979.495014 831.127859 968.014407 816.160409L968.014407 816.160409zM421.123612 426.211961c0-115.769386 94.418277-209.912431 210.516221-209.912431s210.516221 94.143045 210.516221 209.912431S747.739497 636.131273 631.639833 636.131273 421.123612 541.981347 421.123612 426.211961L421.123612 426.211961zM288.458433 288.809354 83.176777 288.809354c-18.887784 0-34.216476-15.283967-34.216476-34.120145s15.326972-34.120145 34.216476-34.120145l205.279935 0c18.887784 0 34.216476 15.283967 34.216476 34.120145C322.673189 273.525386 307.346217 288.809354 288.458433 288.809354L288.458433 288.809354zM280.180836 626.085311 83.176777 626.085311c-18.887784 0-34.216476-15.283967-34.216476-34.120145s15.326972-34.120145 34.216476-34.120145l197.002338 0c18.887784 0 34.216476 15.283967 34.216476 34.120145C314.397312 610.801344 299.06862 626.085311 280.180836 626.085311L280.180836 626.085311zM239.714877 457.091251 83.181938 457.091251c-18.891224 0-34.221637-15.266765-34.221637-34.15971 0-18.860261 15.330413-34.166591 34.221637-34.166591l156.532939 0c18.891224 0 34.221637 15.30633 34.221637 34.166591C273.936514 441.824486 258.606101 457.091251 239.714877 457.091251L239.714877 457.091251zM460.092998 801.266926 83.223223 801.266926c-18.913587 0-34.262922-15.275366-34.262922-34.166591s15.349335-34.166591 34.262922-34.166591l376.868055 0c18.913587 0 34.262922 15.275366 34.262922 34.166591C494.35592 785.99328 479.008305 801.266926 460.092998 801.266926L460.092998 801.266926z" p-id="7940"></path></svg>