<?xml version="1.0" standalone="no"?><!DOCTYPE svg PUBLIC "-//W3C//DTD SVG 1.1//EN" "http://www.w3.org/Graphics/SVG/1.1/DTD/svg11.dtd"><svg t="1558413204779" class="icon" style="" viewBox="0 0 1024 1024" version="1.1" xmlns="http://www.w3.org/2000/svg" p-id="13556" xmlns:xlink="http://www.w3.org/1999/xlink" width="300" height="300"><defs><style type="text/css"></style></defs><path d="M458.752 596.992c37.888-21.504 73.728-31.744 113.664-31.744 11.264 0 22.528 1.024 32.768 2.048 5.12 1.024 6.144-1.024 1.024-4.096-19.456-11.264-40.96-21.504-63.488-30.72-44.032-18.432-50.176-34.816-50.176-53.248 0-18.432 12.288-34.816 26.624-48.128 25.6-23.552 39.936-55.296 39.936-93.184 0-70.656-44.032-131.072-121.856-131.072-77.824 0-121.856 60.416-121.856 131.072 0 37.888 14.336 70.656 39.936 93.184 14.336 13.312 26.624 30.72 26.624 48.128 0 17.408-7.168 34.816-50.176 53.248-63.488 26.624-123.904 57.344-124.928 114.688 0 37.888 28.672 71.68 64.512 71.68h145.408c11.264 0 20.48-9.216 20.48-20.48v-66.56c1.024-14.336 8.192-27.648 21.504-34.816z m332.8 60.416c-96.256 29.696-172.032-61.44-277.504-18.432-8.192 3.072-12.288 10.24-12.288 19.456V768c0 14.336 12.288 23.552 25.6 19.456 104.448-31.744 180.224 59.392 278.528 18.432 7.168-3.072 13.312-10.24 13.312-19.456V676.864c0-13.312-14.336-23.552-27.648-19.456z m-128 102.4c-22.528 0-40.96-18.432-40.96-40.96s18.432-40.96 40.96-40.96 40.96 18.432 40.96 40.96-18.432 40.96-40.96 40.96z" p-id="13557"></path></svg>