<?xml version="1.0" standalone="no"?><!DOCTYPE svg PUBLIC "-//W3C//DTD SVG 1.1//EN" "http://www.w3.org/Graphics/SVG/1.1/DTD/svg11.dtd"><svg t="1558412272334" class="icon" style="" viewBox="0 0 1024 1024" version="1.1" xmlns="http://www.w3.org/2000/svg" p-id="7365" xmlns:xlink="http://www.w3.org/1999/xlink" width="300" height="300"><defs><style type="text/css"></style></defs><path d="M960 618.666667a21.333333 21.333333 0 0 1-21.333333 21.333333h-41.08l-7.533334-42.666667H938.666667a21.333333 21.333333 0 0 1 21.333333 21.333334z m42.666667-192h-85.333334a21.333333 21.333333 0 0 0 0 42.666666h85.333334a21.333333 21.333333 0 0 0 0-42.666666z m-256 213.333333h150.92l34.126666 193.4a53.333333 53.333333 0 0 1-52.52 62.6H176.18a53.26 53.26 0 0 1-52.52-44.066667l-116.706667-661.333333A53.333333 53.333333 0 0 1 59.473333 128h703.013334a53.26 53.26 0 0 1 52.52 44.066667l7.286666 41.266666H1002.666667a21.333333 21.333333 0 0 1 0 42.666667h-172.846667l60.233333 341.333333H746.666667a21.333333 21.333333 0 0 0 0 42.666667zM633.753333 390.246667a21.333333 21.333333 0 0 0-30.173333 0L405.333333 588.5 292.42 475.58a21.333333 21.333333 0 0 0-30.173333 30.173333l128 128a21.333333 21.333333 0 0 0 30.173333 0l213.333333-213.333333a21.333333 21.333333 0 0 0 0-30.173333zM1002.666667 768h-21.333334a21.333333 21.333333 0 0 0 0 42.666667h21.333334a21.333333 21.333333 0 0 0 0-42.666667z" p-id="7366"></path></svg>
