<?xml version="1.0" standalone="no"?><!DOCTYPE svg PUBLIC "-//W3C//DTD SVG 1.1//EN" "http://www.w3.org/Graphics/SVG/1.1/DTD/svg11.dtd"><svg t="1558412119087" class="icon" style="" viewBox="0 0 1024 1024" version="1.1" xmlns="http://www.w3.org/2000/svg" p-id="7113" xmlns:xlink="http://www.w3.org/1999/xlink" width="300" height="300"><defs><style type="text/css"></style></defs><path d="M945.6 259.7c-0.2-0.2-0.3-0.4-0.5-0.7l-99.8-132.5c-11.9-16.8-31.3-26.8-51.9-26.8H530.1v175.1h423.3c-1.9-5.3-4.5-10.4-7.8-15.1zM502.1 99.7H228.9c-20.8 0-40.3 10.2-52.2 27.2l-98 132.3c-0.2 0.2-0.3 0.4-0.5 0.7-3.2 4.7-5.7 9.7-7.6 14.9h431.5V99.7zM67 302.8V862c0 35.1 28.6 63.7 63.7 63.7h762.7c35.1 0 63.7-28.6 63.7-63.7V302.8H67z m754.9 492.5H579c-13.2 0-24-10.8-24-24s10.8-24 24-24h243c13.2 0 24 10.8 24 24s-10.9 24-24.1 24z m24-114c0 13.2-10.8 24-24 24h-152c-13.2 0-24-10.8-24-24s10.8-24 24-24h152c13.2 0 24 10.8 24 24z" p-id="7114"></path></svg>