<?xml version="1.0" standalone="no"?><!DOCTYPE svg PUBLIC "-//W3C//DTD SVG 1.1//EN" "http://www.w3.org/Graphics/SVG/1.1/DTD/svg11.dtd"><svg t="1592565015972" class="icon" viewBox="0 0 1024 1024" version="1.1" xmlns="http://www.w3.org/2000/svg" p-id="10318" xmlns:xlink="http://www.w3.org/1999/xlink" width="200" height="200"><defs><style type="text/css"></style></defs><path d="M810.666667 341.333333h85.333333a42.666667 42.666667 0 0 1 42.666667 42.666667v512a42.666667 42.666667 0 0 1-42.666667 42.666667h-341.333333a42.666667 42.666667 0 0 1-42.666667-42.666667v-42.666667H170.666667a42.666667 42.666667 0 0 1-42.666667-42.666666V128a42.666667 42.666667 0 0 1 42.666667-42.666667h597.333333a42.666667 42.666667 0 0 1 42.666667 42.666667v213.333333z m-85.333334 0V170.666667H213.333333v597.333333h298.666667V384a42.666667 42.666667 0 0 1 42.666667-42.666667h170.666666z m-128 85.333334v426.666666h256V426.666667h-256z" p-id="10319"></path></svg>