<?xml version="1.0" standalone="no"?><!DOCTYPE svg PUBLIC "-//W3C//DTD SVG 1.1//EN" "http://www.w3.org/Graphics/SVG/1.1/DTD/svg11.dtd"><svg t="1558412667736" class="icon" style="" viewBox="0 0 1024 1024" version="1.1" xmlns="http://www.w3.org/2000/svg" p-id="9588" xmlns:xlink="http://www.w3.org/1999/xlink" width="300" height="300"><defs><style type="text/css"></style></defs><path d="M976 128h-16v40c0 13.2-10.8 24-24 24h-80c-13.2 0-24-10.8-24-24V128H192v40c0 13.2-10.8 24-24 24H88c-13.2 0-24-10.8-24-24V128h-16C21.4 128 0 149.4 0 176v672c0 26.6 21.4 48 48 48h16v-40c0-13.2 10.8-24 24-24h80c13.2 0 24 10.8 24 24v40h640v-40c0-13.2 10.8-24 24-24h80c13.2 0 24 10.8 24 24v40h16c26.6 0 48-21.4 48-48V176c0-26.6-21.4-48-48-48zM192 744c0 13.2-10.8 24-24 24H88c-13.2 0-24-10.8-24-24v-80c0-13.2 10.8-24 24-24h80c13.2 0 24 10.8 24 24v80z m0-192c0 13.2-10.8 24-24 24H88c-13.2 0-24-10.8-24-24v-80c0-13.2 10.8-24 24-24h80c13.2 0 24 10.8 24 24v80z m0-192c0 13.2-10.8 24-24 24H88c-13.2 0-24-10.8-24-24v-80c0-13.2 10.8-24 24-24h80c13.2 0 24 10.8 24 24v80z m544 416c0 13.2-10.8 24-24 24H312c-13.2 0-24-10.8-24-24v-192c0-13.2 10.8-24 24-24h400c13.2 0 24 10.8 24 24v192z m0-336c0 13.2-10.8 24-24 24H312c-13.2 0-24-10.8-24-24v-192c0-13.2 10.8-24 24-24h400c13.2 0 24 10.8 24 24v192z m224 304c0 13.2-10.8 24-24 24h-80c-13.2 0-24-10.8-24-24v-80c0-13.2 10.8-24 24-24h80c13.2 0 24 10.8 24 24v80z m0-192c0 13.2-10.8 24-24 24h-80c-13.2 0-24-10.8-24-24v-80c0-13.2 10.8-24 24-24h80c13.2 0 24 10.8 24 24v80z m0-192c0 13.2-10.8 24-24 24h-80c-13.2 0-24-10.8-24-24v-80c0-13.2 10.8-24 24-24h80c13.2 0 24 10.8 24 24v80z" p-id="9589"></path></svg>
