<?xml version="1.0" standalone="no"?><!DOCTYPE svg PUBLIC "-//W3C//DTD SVG 1.1//EN" "http://www.w3.org/Graphics/SVG/1.1/DTD/svg11.dtd"><svg t="1558496013579" class="icon" style="" viewBox="0 0 1024 1024" version="1.1" xmlns="http://www.w3.org/2000/svg" p-id="1983" xmlns:xlink="http://www.w3.org/1999/xlink" width="300" height="300"><defs><style type="text/css"></style></defs><path d="M704 373.76H232.96c-15.36 0-25.6-10.24-25.6-25.6s10.24-25.6 25.6-25.6h473.6c15.36 0 25.6 10.24 25.6 25.6s-12.8 25.6-28.16 25.6z m-304.64 204.8h-166.4c-15.36 0-25.6-10.24-25.6-25.6s10.24-25.6 25.6-25.6h166.4c15.36 0 25.6 10.24 25.6 25.6s-12.8 25.6-25.6 25.6z m-38.4 181.76h-128c-15.36 0-25.6-10.24-25.6-25.6s10.24-25.6 25.6-25.6h128c15.36 0 25.6 10.24 25.6 25.6s-10.24 25.6-25.6 25.6zM954.88 0H729.6C714.24 0 704 10.24 704 25.6v64c0 5.12-2.56 12.8-12.8 12.8H327.68c-2.56 0-12.8 0-12.8-12.8v-64c0-15.36-10.24-25.6-25.6-25.6H66.56c-15.36 0-25.6 10.24-25.6 25.6v972.8c0 15.36 10.24 25.6 25.6 25.6h417.28c15.36 0 25.6-10.24 25.6-25.6s-10.24-25.6-25.6-25.6H92.16V51.2h174.08v38.4c0 23.04 15.36 61.44 58.88 64 12.8 0 343.04 2.56 373.76 0 43.52-5.12 58.88-40.96 58.88-64V51.2h174.08v437.76c0 15.36 10.24 25.6 25.6 25.6s25.6-10.24 25.6-25.6V25.6C980.48 12.8 967.68 0 954.88 0zM619.52 51.2h-230.4c-15.36 0-25.6-10.24-25.6-25.6S373.76 0 389.12 0h230.4c15.36 0 25.6 10.24 25.6 25.6s-12.8 25.6-25.6 25.6zM704 463.36c-153.6 0-279.04 125.44-279.04 279.04S550.4 1021.44 704 1021.44 983.04 896 983.04 742.4 857.6 463.36 704 463.36z m171.52 296.96H711.68c-15.36 0-25.6-10.24-25.6-25.6V588.8c0-15.36 10.24-25.6 25.6-25.6s25.6 10.24 25.6 25.6v117.76h138.24c15.36 0 25.6 10.24 25.6 25.6s-10.24 28.16-25.6 28.16z" p-id="1984"></path></svg>
