<?xml version="1.0" standalone="no"?><!DOCTYPE svg PUBLIC "-//W3C//DTD SVG 1.1//EN" "http://www.w3.org/Graphics/SVG/1.1/DTD/svg11.dtd"><svg t="1593584681899" class="icon" viewBox="0 0 1024 1024" version="1.1" xmlns="http://www.w3.org/2000/svg" p-id="7166" xmlns:xlink="http://www.w3.org/1999/xlink" width="200" height="200"><defs><style type="text/css"></style></defs><path d="M869.249039 933.458515h-19.756781l20.731469 20.700527a31.019847 31.019847 0 0 1-43.84551 43.84551l-64.546036-64.546037H247.382325l-64.546037 64.546037a30.988905 30.988905 0 1 1-43.845509-43.84551l20.731469-20.700527H139.965467a61.993281 61.993281 0 0 1-61.993281-61.993281V367.767894a62.008752 62.008752 0 0 1 61.993281-62.008752h729.283572a62.008752 62.008752 0 0 1 61.99328 62.008752v503.69734a61.993281 61.993281 0 0 1-61.99328 61.993281z m0-565.690621H139.965467v503.69734h729.283572V367.767894zM212.123356 422.87647h450.89398c11.417779 0 20.654113 9.251805 20.654113 20.669584v74.045382a20.654113 20.654113 0 1 1-41.323697 0v-53.40674H232.79294v237.700216a20.669584 20.669584 0 0 1-41.339168 0V443.546054c0-11.417779 9.236334-20.669584 20.669584-20.669584z m0 352.125549h430.224396V610.589092a20.669584 20.669584 0 1 1 41.323697 0v185.082511c0 11.43325-9.236334 20.669584-20.654113 20.669584H212.123356a20.669584 20.669584 0 1 1 0-41.339168z m565.690622-352.125549a62.055166 62.055166 0 0 1 62.008752 61.993281 62.070637 62.070637 0 0 1-62.008752 61.993281 62.070637 62.070637 0 0 1-61.993281-61.993281 62.055166 62.055166 0 0 1 61.993281-61.993281z m0 82.647394c11.386837 0 20.669584-9.267276 20.669584-20.654113 0-11.402308-9.282747-20.685055-20.669584-20.685055a20.685055 20.685055 0 0 0 0 41.339168z m0 85.679758a35.320854 35.320854 0 1 1-0.015472 70.626236 35.320854 35.320854 0 0 1 0.015472-70.626236zM527.999776 258.5409a30.957962 30.957962 0 0 1-43.830039 0L295.451485 69.838119A31.004376 31.004376 0 0 1 339.296994 26.00808l166.780027 166.780027L672.857048 26.00808a30.973434 30.973434 0 0 1 43.830038 0 30.973434 30.973434 0 0 1 0 43.830039L527.999776 258.5409z" p-id="7167"></path></svg>