<?xml version="1.0" standalone="no"?><!DOCTYPE svg PUBLIC "-//W3C//DTD SVG 1.1//EN" "http://www.w3.org/Graphics/SVG/1.1/DTD/svg11.dtd"><svg t="1592561673096" class="icon" viewBox="0 0 1024 1024" version="1.1" xmlns="http://www.w3.org/2000/svg" p-id="1041" xmlns:xlink="http://www.w3.org/1999/xlink" width="200" height="200"><defs><style type="text/css"></style></defs><path d="M414.646857 493.470476 143.77854 493.470476c-40.395175 0-73.142857-32.747683-73.142857-73.142857L70.635683 144.253968c0-40.395175 32.747683-73.142857 73.142857-73.142857l270.868317 0c40.395175 0 73.142857 32.747683 73.142857 73.142857l0 276.073651C487.789714 460.722794 455.042032 493.470476 414.646857 493.470476z" p-id="1042"></path><path d="M886.00381 71.111111l-282.428952 0c-37.20127 0-67.360508 30.159238-67.360508 67.360508l0 287.634286c0 37.20127 30.159238 67.360508 67.360508 67.360508l282.428952 0c37.20127 0 67.360508-30.159238 67.360508-67.360508L953.364317 138.475683C953.364317 101.270349 923.205079 71.111111 886.00381 71.111111zM914.635175 386.89727c0 37.20127-30.159238 67.360508-67.360508 67.360508l-204.970667 0c-37.20127 0-67.360508-30.159238-67.360508-67.360508L574.943492 177.688381c0-37.20127 30.159238-67.360508 67.360508-67.360508l204.970667 0c37.20127 0 67.360508 30.159238 67.360508 67.360508L914.635175 386.89727z" p-id="1043"></path><path d="M880.22146 952.888889l-270.868317 0c-40.395175 0-73.142857-32.747683-73.142857-73.142857l0-276.073651c0-40.395175 32.747683-73.142857 73.142857-73.142857l270.868317 0c40.395175 0 73.142857 32.747683 73.142857 73.142857l0 276.073651C953.364317 920.141206 920.616635 952.888889 880.22146 952.888889z" p-id="1044"></path><path d="M414.646857 952.888889 143.77854 952.888889c-40.395175 0-73.142857-32.747683-73.142857-73.142857l0-276.073651c0-40.395175 32.747683-73.142857 73.142857-73.142857l270.868317 0c40.395175 0 73.142857 32.747683 73.142857 73.142857l0 276.073651C487.789714 920.141206 455.042032 952.888889 414.646857 952.888889z" p-id="1045"></path></svg>