<?xml version="1.0" standalone="no"?><!DOCTYPE svg PUBLIC "-//W3C//DTD SVG 1.1//EN" "http://www.w3.org/Graphics/SVG/1.1/DTD/svg11.dtd"><svg t="1596348133275" class="icon" viewBox="0 0 1024 1024" version="1.1" xmlns="http://www.w3.org/2000/svg" p-id="2003" xmlns:xlink="http://www.w3.org/1999/xlink" width="200" height="200"><defs><style type="text/css"></style></defs><path d="M945.230769 984.615385H78.769231c-21.661538 0-39.384615-17.723077-39.384616-39.384616V78.769231c0-21.661538 17.723077-39.384615 39.384616-39.384616h866.461538c21.661538 0 39.384615 17.723077 39.384616 39.384616v866.461538c0 21.661538-17.723077 39.384615-39.384616 39.384616zM118.153846 905.846154h787.692308V118.153846H118.153846v787.692308z m649.846154-512H256c-11.815385 0-19.692308-7.876923-19.692308-19.692308v-118.153846c0-11.815385 7.876923-19.692308 19.692308-19.692308h512c11.815385 0 19.692308 7.876923 19.692308 19.692308v118.153846c0 11.815385-7.876923 19.692308-19.692308 19.692308zM374.153846 787.692308h-118.153846c-11.815385 0-19.692308-7.876923-19.692308-19.692308V531.692308c0-11.815385 7.876923-19.692308 19.692308-19.692308h118.153846c11.815385 0 19.692308 7.876923 19.692308 19.692308v236.307692c0 11.815385-7.876923 19.692308-19.692308 19.692308z m393.846154 0H531.692308c-11.815385 0-19.692308-7.876923-19.692308-19.692308V531.692308c0-11.815385 7.876923-19.692308 19.692308-19.692308h236.307692c11.815385 0 19.692308 7.876923 19.692308 19.692308v236.307692c0 11.815385-7.876923 19.692308-19.692308 19.692308z" p-id="2004"></path></svg>