<?xml version="1.0" standalone="no"?><!DOCTYPE svg PUBLIC "-//W3C//DTD SVG 1.1//EN" "http://www.w3.org/Graphics/SVG/1.1/DTD/svg11.dtd"><svg t="1558408709536" class="icon" style="" viewBox="0 0 1024 1024" version="1.1" xmlns="http://www.w3.org/2000/svg" p-id="4478" xmlns:xlink="http://www.w3.org/1999/xlink" width="200" height="200"><defs><style type="text/css"></style></defs><path d="M85.333333 656.512V367.488c0-54.613333 0-99.882667 4.949334-135.850667 5.205333-37.930667 16.64-71.68 44.288-98.645333 27.477333-26.837333 61.610667-37.802667 99.968-42.837333C271.146667 85.333333 317.44 85.333333 373.418667 85.333333h26.581333c56.021333 0 102.272 0 138.88 4.821334 38.4 5.034667 72.533333 16 99.968 42.837333 27.605333 26.965333 39.082667 60.714667 44.288 98.645333 4.949333 35.968 4.949333 81.28 4.949333 135.850667v289.024c0 54.613333 0 99.882667-4.949333 135.850667-5.205333 37.930667-16.64 71.68-44.288 98.645333-27.477333 26.837333-61.610667 37.802667-99.968 42.837333-36.608 4.821333-82.858667 4.821333-138.88 4.821334h-26.581333c-56.021333 0-102.272 0-138.88-4.821334-38.357333-5.034667-72.533333-16-99.968-42.837333-27.605333-26.965333-39.082667-60.714667-44.288-98.645333C85.333333 756.394667 85.333333 711.082667 85.333333 656.512z m89.472 124.202667c3.84 28.117333 10.624 40.704 19.370667 49.237333 8.917333 8.704 22.186667 15.445333 51.498667 19.285333 30.378667 4.010667 70.954667 4.096 130.688 4.096h20.693333c59.733333 0 100.309333-0.085333 130.730667-4.096 29.269333-3.84 42.538667-10.581333 51.456-19.285333 8.746667-8.533333 15.488-21.12 19.370666-49.237333 4.053333-29.44 4.138667-68.821333 4.138667-127.232V370.517333c0-58.368-0.085333-97.792-4.138667-127.232-3.84-28.117333-10.624-40.704-19.370666-49.237333-8.917333-8.704-22.186667-15.445333-51.456-19.285333C497.365333 170.752 456.789333 170.666667 397.056 170.666667h-20.693333c-59.733333 0-100.309333 0.085333-130.688 4.096-29.269333 3.84-42.581333 10.581333-51.498667 19.285333-8.746667 8.533333-15.488 21.12-19.370667 49.237333C170.752 272.725333 170.666667 312.149333 170.666667 370.517333v282.965334c0 58.368 0.085333 97.792 4.138666 127.232z m112.981334-120.917334c-19.541333-13.44-36.864-36.693333-36.864-66.986666V451.413333c0-30.037333 17.109333-53.418667 36.437333-67.029333a96.128 96.128 0 0 1 71.552-16.170667c18.858667 3.328 34.773333 13.312 42.794667 18.346667l2.133333 1.322667c15.829333 9.685333 31.402667 19.626667 46.506667 29.354666l0.384 0.256c15.146667 9.685333 29.866667 19.157333 44.8 28.288l1.194666 0.725334c3.072 1.792 11.008 6.4 14.762667 8.874666 6.997333 4.608 16.341333 11.733333 24.021333 22.741334 6.229333 8.874667 16.256 24.234667 16.256 44.330666 0 20.053333-10.026667 35.413333-16.213333 44.330667-7.850667 11.136-17.365333 18.346667-24.448 22.954667a197.205333 197.205333 0 0 1-9.6 5.888l-1.450667 0.853333a194.986667 194.986667 0 0 0-5.077333 2.944l-29.696 18.346667c-20.181333 12.501333-40.448 25.088-60.714667 37.461333l-2.389333 1.493333c-8.064 5.034667-24.277333 15.232-43.264 18.602667a96.810667 96.810667 0 0 1-71.125333-15.488z m52.181333-68.693333a10.282667 10.282667 0 0 0 4.053333 0.128s1.066667-0.213333 3.84-1.621333c2.602667-1.365333 4.992-2.816 8.789334-5.12l3.413333-2.133334c20.053333-12.245333 39.978667-24.576 59.989333-36.992l30.122667-18.602666c2.56-1.621333 5.290667-3.157333 7.381333-4.352a288 288 0 0 1-6.741333-3.968c-15.530667-9.557333-30.848-19.370667-45.824-28.970667l-0.64-0.426667a2759.68 2759.68 0 0 0-45.098667-28.458666l-2.133333-1.28c-4.224-2.645333-6.826667-4.224-9.472-5.546667a16.64 16.64 0 0 0-3.626667-1.578667 9.088 9.088 0 0 0-3.626666 0.213334 11.648 11.648 0 0 0-3.925334 1.706666l-0.213333 0.170667v135.253333a11.776 11.776 0 0 0 3.712 1.578667z m389.504 282.24a42.666667 42.666667 0 0 1-18.56-57.429333l6.485333-12.373334c4.693333-8.746667 7.125333-13.397333 8.533334-19.114666 0.725333-3.114667 1.024-6.698667 1.024-27.648V267.221333c0-20.949333-0.298667-24.533333-1.024-27.648-1.408-5.717333-3.84-10.368-8.533334-19.114666l-6.485333-12.373334a42.666667 42.666667 0 0 1 75.946667-38.912l2.858666 5.333334c5.589333 10.325333 14.933333 27.562667 19.157334 45.013333 3.413333 14.250667 3.413333 28.672 3.413333 44.373333v496.170667c0 15.786667 0 30.165333-3.413333 44.373333-4.266667 17.493333-13.568 34.730667-19.157334 45.056-1.109333 2.048-2.090667 3.84-2.816 5.333334a42.666667 42.666667 0 0 1-57.429333 18.517333z m126.378667-42.666667a42.666667 42.666667 0 0 1-18.517334-57.429333l6.485334-12.373333c4.650667-8.746667 7.082667-13.397333 8.533333-19.157334 0.725333-3.072 0.981333-6.656 0.981333-27.605333v-408.746667c0-20.906667-0.256-24.533333-1.024-27.605333-1.408-5.76-3.84-10.368-8.533333-19.157333-1.792-3.413333-3.925333-7.424-6.442667-12.373334a42.666667 42.666667 0 0 1 75.946667-38.869333c0.725333 1.450667 1.706667 3.242667 2.858667 5.333333 5.546667 10.282667 14.933333 27.562667 19.114666 45.013334 3.413333 14.250667 3.413333 28.629333 3.413334 44.373333v415.317333c0 15.786667 0 30.165333-3.413334 44.373334-4.224 17.493333-13.568 34.730667-19.114666 45.056-1.152 2.048-2.133333 3.84-2.858667 5.333333a42.666667 42.666667 0 0 1-57.429333 18.517333z" p-id="4479"></path></svg>