<?xml version="1.0" standalone="no"?><!DOCTYPE svg PUBLIC "-//W3C//DTD SVG 1.1//EN" "http://www.w3.org/Graphics/SVG/1.1/DTD/svg11.dtd"><svg t="1667197604919" class="icon" viewBox="0 0 1024 1024" version="1.1" xmlns="http://www.w3.org/2000/svg" p-id="3115" xmlns:xlink="http://www.w3.org/1999/xlink" width="48" height="48"><path d="M1024 808.727c0 13.091-2.424 30.182-7.273 51.273-4.848 21.09-9.94 37.697-15.272 49.818-10.182 24.243-39.758 49.94-88.728 77.091-45.575 24.727-90.666 37.091-135.272 37.091-13.091 0-25.819-0.848-38.182-2.545-12.364-1.697-26.303-4.728-41.818-9.091-15.516-4.364-27.03-7.88-34.546-10.546-7.515-2.666-20.97-7.636-40.364-14.909-19.393-7.273-31.272-11.636-35.636-13.09-47.515-16.97-89.94-37.092-127.273-60.364-62.06-38.303-126.181-90.546-192.363-156.728S148.848 626.424 110.545 564.364C87.273 527.03 67.152 484.606 50.182 437.09c-1.455-4.364-5.818-16.243-13.091-35.636-7.273-19.394-12.243-32.849-14.91-40.364-2.666-7.515-6.181-19.03-10.545-34.546-4.363-15.515-7.394-29.454-9.09-41.818C0.847 272.364 0 259.637 0 246.545c0-44.606 12.364-89.697 37.09-135.272 27.152-48.97 52.85-78.546 77.092-88.728C126.303 17.212 142.909 12.121 164 7.273 185.09 2.424 202.182 0 215.273 0c6.788 0 11.879 0.727 15.272 2.182 8.728 2.909 21.576 21.333 38.546 55.273 5.333 9.212 12.606 22.303 21.818 39.272 9.212 16.97 17.697 32.364 25.455 46.182 7.757 13.818 15.272 26.788 22.545 38.91 1.455 1.939 5.697 8 12.727 18.181 7.03 10.182 12.243 18.788 15.637 25.818 3.394 7.03 5.09 13.94 5.09 20.727 0 9.697-6.908 21.819-20.727 36.364-13.818 14.546-28.848 27.879-45.09 40-16.243 12.121-31.273 24.97-45.091 38.546-13.819 13.575-20.728 24.727-20.728 33.454 0 4.364 1.212 9.818 3.637 16.364 2.424 6.545 4.484 11.515 6.181 14.909s5.091 9.212 10.182 17.454c5.091 8.243 7.88 12.849 8.364 13.819 36.848 66.424 79.03 123.393 126.545 170.909 47.516 47.515 104.485 89.697 170.91 126.545 0.97 0.485 5.575 3.273 13.818 8.364 8.242 5.09 14.06 8.485 17.454 10.182 3.394 1.697 8.364 3.757 14.91 6.181 6.545 2.425 12 3.637 16.363 3.637 8.727 0 19.879-6.91 33.454-20.728 13.576-13.818 26.425-28.848 38.546-45.09 12.121-16.243 25.454-31.273 40-45.091 14.545-13.819 26.667-20.728 36.364-20.728 6.787 0 13.697 1.697 20.727 5.091 7.03 3.394 15.636 8.606 25.818 15.637 10.182 7.03 16.242 11.272 18.182 12.727 12.121 7.273 25.09 14.788 38.909 22.545 13.818 7.758 29.212 16.243 46.182 25.455 16.97 9.212 30.06 16.485 39.272 21.818 33.94 16.97 52.364 29.818 55.273 38.546 1.455 3.393 2.182 8.484 2.182 15.272z m0 0" p-id="3116"></path></svg>