<?xml version="1.0" standalone="no"?><!DOCTYPE svg PUBLIC "-//W3C//DTD SVG 1.1//EN" "http://www.w3.org/Graphics/SVG/1.1/DTD/svg11.dtd"><svg t="1661325882974" class="icon" viewBox="0 0 1024 1024" version="1.1" xmlns="http://www.w3.org/2000/svg" p-id="6584" xmlns:xlink="http://www.w3.org/1999/xlink" width="48" height="48"><defs><style type="text/css">@font-face { font-family: feedback-iconfont; src: url("//at.alicdn.com/t/font_1031158_u69w8yhxdu.woff2?t=1630033759944") format("woff2"), url("//at.alicdn.com/t/font_1031158_u69w8yhxdu.woff?t=1630033759944") format("woff"), url("//at.alicdn.com/t/font_1031158_u69w8yhxdu.ttf?t=1630033759944") format("truetype"); }
</style></defs><path d="M399.238 574.019H114.165C51.139 574.019 0 625.115 0 688.143v200.036c0 63.013 51.139 114.152 114.165 114.152h285.074c63.054 0 114.138-51.139 114.165-114.152l-0.027-200.022c-0.001-63.027-51.084-114.138-114.139-114.138m-14.821 327.87H128.986c-15.753 0-28.531-12.793-28.531-28.531V702.95c0-15.738 12.778-28.531 28.545-28.531h255.417c15.753 0 28.531 12.793 28.531 28.531l0.027 170.408c0 15.738-12.805 28.531-28.558 28.531M906.831 449.982c63.026 0 114.109-51.112 114.109-114.152V135.794c0-63.013-51.11-114.125-114.138-114.125H621.729c-63.04 0-114.165 51.083-114.165 114.111v200.05c0 63.04 51.125 114.152 114.165 114.152h285.102z m-298.81-128.946V150.63c0-15.74 12.777-28.545 28.531-28.545h255.429c15.753 0 28.517 12.805 28.531 28.545l0.014 170.406c0 15.711-12.793 28.504-28.545 28.504H636.523c-15.752 0-28.502-12.793-28.502-28.504M1024 685.237L876.659 538.382 729.541 685.237h107.033c0 0.709 0.027 1.543 0.027 1.946 0 125.498-102.083 227.581-227.608 227.581-0.125 0-0.514 0-0.779-0.028v87.582h0.779c174.05 0 315.162-141.139 315.162-315.134 0-0.403-0.043-1.237-0.043-1.946H1024zM147.326 485.77l147.132-146.867H187.425c0-0.695-0.041-1.543-0.041-1.932 0-125.512 102.097-227.595 227.622-227.595 0.14 0 0.501 0 0.779 0.014V21.823h-0.779c-174.05 0-315.175 141.125-315.175 315.148 0 0.389 0.056 1.237 0.056 1.932H0L147.326 485.77z" p-id="6585"></path></svg>