<?xml version="1.0" standalone="no"?><!DOCTYPE svg PUBLIC "-//W3C//DTD SVG 1.1//EN" "http://www.w3.org/Graphics/SVG/1.1/DTD/svg11.dtd"><svg t="1593653186134" class="icon" viewBox="0 0 1024 1024" version="1.1" xmlns="http://www.w3.org/2000/svg" p-id="1797" xmlns:xlink="http://www.w3.org/1999/xlink" width="200" height="200"><defs><style type="text/css"></style></defs><path d="M846.208 435.498667A260.565333 260.565333 0 0 0 781.098667 426.666667V377.429333a21.333333 21.333333 0 0 0-21.333334-21.333333H260.181333a21.333333 21.333333 0 0 0-21.333333 21.333333v306.346667a21.333333 21.333333 0 0 0 21.333333 21.333333h275.072c4.437333 22.229333 12.16 43.349333 22.698667 62.890667H213.333333a42.666667 42.666667 0 0 1-42.666666-42.666667V256a42.666667 42.666667 0 0 1 42.666666-42.666667h590.208a42.666667 42.666667 0 0 1 42.666667 42.666667v179.498667zM274.261333 315.733333c19.882667 0 36.010667-15.274667 36.010667-34.133333 0-18.858667-16.128-34.133333-36.010667-34.133333-19.925333 0-36.053333 15.274667-36.053333 34.133333 0 18.858667 16.128 34.133333 36.053333 34.133333z m112.597334 0c19.882667 0 36.010667-15.274667 36.010666-34.133333 0-18.858667-16.128-34.133333-36.010666-34.133333-19.925333 0-36.053333 15.274667-36.053334 34.133333 0 18.858667 16.128 34.133333 36.053334 34.133333z m589.653333 307.242667c2.901333 12.202667 3.84 25.386667 4.821333 38.570667 0 12.202667-0.981333 24.405333-3.84 38.528v0.938666a26.325333 26.325333 0 0 1-12.586666 14.08c-0.938667 0.981333-0.938667 0.981333-1.92 0.981334-17.365333 4.693333-31.829333 15.018667-39.552 28.16a63.573333 63.573333 0 0 0-5.802667 49.877333c2.901333 7.509333 0 16.896-6.741333 20.650667-18.346667 15.061333-39.594667 27.306667-64.682667 37.632-1.92 0.938667-4.821333 0.938667-6.741333 0.938666-4.821333 0-9.642667-2.816-13.525334-6.570666-13.482667-13.184-28.928-20.693333-45.354666-20.693334a59.733333 59.733333 0 0 0-45.354667 19.754667 22.4 22.4 0 0 1-15.445333 6.570667h-2.901334c-1.92 0-2.858667-0.938667-3.84-0.938667a178.346667 178.346667 0 0 1-66.56-38.570667c-6.826667-5.632-8.704-14.08-5.845333-20.650666a56.021333 56.021333 0 0 0-5.76-47.957334c-9.642667-16-22.186667-25.386667-39.594667-29.141333h-0.938666a18.048 18.048 0 0 1-14.506667-16 160.64 160.64 0 0 1-3.84-37.589333c0-12.245333 0.981333-24.448 3.84-38.570667v-0.938667a26.325333 26.325333 0 0 1 12.586667-14.08c0.938667-0.981333 0.938667-0.981333 1.92-0.981333 17.365333-4.693333 31.829333-15.018667 39.552-28.16a63.573333 63.573333 0 0 0 5.802666-49.877333 17.578667 17.578667 0 0 1 6.741334-20.650667c18.346667-15.061333 39.594667-27.306667 64.682666-37.632a19.370667 19.370667 0 0 1 21.205334 4.693333c13.525333 13.184 28.970667 20.693333 45.354666 20.693334 18.346667 0 34.773333-6.570667 45.354667-19.754667 6.784-6.570667 14.506667-8.448 21.248-5.632a182.144 182.144 0 0 1 65.621333 38.570667c6.784 5.632 8.704 14.08 5.802667 20.650666-5.802667 16-2.901333 33.877333 5.802667 47.957334 9.642667 16 22.186667 25.386667 39.552 29.141333h0.981333a18.048 18.048 0 0 1 14.464 16zM778.666667 725.333333c37.632 0 67.541333-28.330667 67.541333-64s-29.866667-64-67.541333-64c-37.632 0-67.541333 28.330667-67.541334 64s29.866667 64 67.541334 64z" p-id="1798"></path></svg>