<?xml version="1.0" standalone="no"?><!DOCTYPE svg PUBLIC "-//W3C//DTD SVG 1.1//EN" "http://www.w3.org/Graphics/SVG/1.1/DTD/svg11.dtd"><svg t="1592564636081" class="icon" viewBox="0 0 1024 1024" version="1.1" xmlns="http://www.w3.org/2000/svg" p-id="5303" xmlns:xlink="http://www.w3.org/1999/xlink" width="200" height="200"><defs><style type="text/css"></style></defs><path d="M160 128C107.328 128 64 171.328 64 224v576c0 52.672 43.328 96 96 96h704c52.672 0 96-43.328 96-96v-448c0-52.672-43.328-96-96-96H435.136l-41.856-77.632A96 96 0 0 0 308.8 128H160z m0 64h148.736c11.84 0 22.592 6.4 28.16 16.768L362.368 256H128v-32c0-17.984 14.016-32 32-32zM128 320h736c17.984 0 32 14.016 32 32v448c0 17.984-14.016 32-32 32h-704a31.552 31.552 0 0 1-32-32V320z m384 64c-70.336 0-128 57.664-128 128 0 34.304 13.888 65.472 36.096 88.512A191.68 191.68 0 0 0 320 768h64c0-71.04 56.96-128 128-128 71.04 0 128 56.96 128 128h64a191.68 191.68 0 0 0-100.096-167.488A127.36 127.36 0 0 0 640 512c0-70.336-57.664-128-128-128z m0 64c35.712 0 64 28.288 64 64s-28.288 64-64 64-64-28.288-64-64 28.288-64 64-64z" fill="" p-id="5304"></path></svg>